<svg xmlns="http://www.w3.org/2000/svg" version="1.1" xmlns:xlink="http://www.w3.org/1999/xlink" width="1000" height="1000"><g clip-path="url(#SvgjsClipPath1235)"><rect width="1000" height="1000" fill="#ffffff"></rect><g transform="matrix(31.25,0,0,31.25,0,0)"><svg xmlns="http://www.w3.org/2000/svg" width="32" height="32" viewBox="0 0 72 80" fill="none"><rect x="8" y="6" width="9" height="46" rx="2" fill="#0D0D14"></rect><rect x="8" y="6" width="40" height="9" rx="2" fill="#0D0D14"></rect><rect x="8" y="43" width="40" height="9" rx="2" fill="#0D0D14"></rect><rect x="31" y="52" width="6" height="14" rx="1" fill="#0D0D14"></rect><rect x="18" y="66" width="32" height="7" rx="3" fill="#0D0D14"></rect><rect x="22" y="16" width="22" height="4" rx="1" fill="#4B35D4"></rect><rect x="22" y="16" width="4" height="11" rx="1" fill="#4B35D4"></rect><rect x="40" y="16" width="4" height="11" rx="1" fill="#4B35D4"></rect><rect x="22" y="27" width="22" height="4" rx="1" fill="#4B35D4"></rect><rect x="22" y="27" width="4" height="11" rx="1" fill="#4B35D4"></rect><rect x="40" y="27" width="4" height="11" rx="1" fill="#4B35D4"></rect><rect x="22" y="38" width="22" height="4" rx="1" fill="#4B35D4"></rect></svg></g></g><defs><clipPath id="SvgjsClipPath1235"><rect width="1000" height="1000" x="0" y="0" rx="100" ry="100"></rect></clipPath></defs></svg>