<svg width="356" height="11" viewBox="0 0 356 11" fill="none" xmlns="http://www.w3.org/2000/svg">
<path fill-rule="evenodd" clip-rule="evenodd" d="M25.0762 5.55525C27.6727 5.80085 30.7642 6.03824 34.1588 6.26128C47.9469 7.16726 66.3419 7.81417 75.5628 7.87005C141.921 8.27223 208.063 6.69281 274.29 3.93224C249.574 3.93199 224.858 3.94027 200.143 3.97301C145.977 4.40555 85.0414 4.95188 39.9894 5.35581C35.0467 5.40012 30.2952 5.44272 25.7648 5.48327C25.5352 5.50705 25.3056 5.53105 25.0762 5.55525ZM335.191 3.94123C341.627 3.94214 348.063 3.94273 354.499 3.94273C355.328 3.94273 355.999 3.27116 355.999 2.44273C355.999 1.6143 355.328 0.942731 354.499 0.942731C350.027 0.942731 345.555 0.942445 341.083 0.941967C341.075 0.933189 341.067 0.924695 341.059 0.916488C340.878 0.72414 340.69 0.625991 340.606 0.585743C340.345 0.459886 340.074 0.428181 340.014 0.421188L340.006 0.420244C339.888 0.405502 339.756 0.395453 339.621 0.38786C339.348 0.372448 338.979 0.362598 338.515 0.357419C322.574 0.179643 306.633 0.262407 290.707 0.345091L288.341 0.357346C265.295 0.476073 234.038 0.702251 200.129 0.973026C188.068 0.989007 176.007 1.01081 163.946 1.0403C150.885 1.07224 137.37 0.804624 123.646 0.532872C91.0502 -0.112574 57.2756 -0.781361 25.5988 2.48464C16.6098 2.56509 8.49434 2.63743 1.48682 2.699C0.658426 2.70628 -0.00722026 3.38373 5.91399e-05 4.21213C0.00733854 5.04052 0.684787 5.70617 1.51318 5.69889C5.6514 5.66252 10.1759 5.62241 15.0383 5.57909C15.0388 5.58984 15.0393 5.60065 15.0399 5.6115C15.0674 6.07202 15.2788 6.40866 15.4522 6.60871C15.7547 6.95758 16.1501 7.13513 16.3544 7.21958C16.8404 7.42042 17.5104 7.57973 18.2428 7.71761C21.2258 8.27923 27.0718 8.80209 33.9621 9.25483C47.8019 10.1642 66.2569 10.8137 75.5447 10.87C156.091 11.3582 236.306 8.92931 316.716 5.0142C320.37 4.83627 327.67 4.44151 333.145 4.08072C333.86 4.03363 334.546 3.98695 335.191 3.94123ZM339.512 0.54202C339.511 0.542316 339.509 0.542625 339.508 0.542935C339.54 0.534351 339.546 0.534992 339.512 0.54202ZM17.4559 6.60855C17.4377 6.6186 17.427 6.62311 17.4261 6.62285C17.4253 6.6226 17.4344 6.61758 17.4559 6.60855Z" fill="#1C59E5"/>
</svg>
